<?xml version="1.0" encoding="iso-8859-1"?><svg viewBox="0 0 502.66 502.66" xmlns="http://www.w3.org/2000/svg" xmlns:xlink="http://www.w3.org/1999/xlink"><style>:root>svg{display:none}:root>svg:target{display:block}</style><svg viewBox="0 0 502.664 502.664" id="icon" xmlns="http://www.w3.org/2000/svg"><g fill="#010002"><path d="M153.821 358.226L0 274.337v-46.463l153.821-83.414v54.574L46.636 250.523l107.185 53.431v54.272zM180.094 387.584L282.103 115.08h32.227L212.084 387.584h-31.99zM348.843 358.226v-54.272l107.164-52.999-107.164-52.59v-53.927l153.821 83.522v46.183l-153.821 84.083z"/></g></svg><svg viewBox="0 0 18 18" id="inst" xmlns="http://www.w3.org/2000/svg"><path fill-rule="evenodd" fill="#FFF" d="M12.006 17.171H5.682c-2.911 0-5.271-2.346-5.271-5.239V5.645c0-2.893 2.36-5.24 5.271-5.24h6.324c2.91 0 5.27 2.347 5.27 5.24v6.287c0 2.893-2.36 5.239-5.27 5.239zm3.689-11.526c0-2.023-1.654-3.667-3.689-3.667H5.682c-2.035 0-3.69 1.644-3.69 3.667v6.287c0 2.022 1.655 3.667 3.69 3.667h6.324c2.035 0 3.689-1.645 3.689-3.667V5.645zm-2.319-.804a.56.56 0 010-1.117.56.56 0 01.562.559.56.56 0 01-.562.558zM8.844 12.98c-2.329 0-4.216-1.877-4.216-4.191 0-2.315 1.887-4.192 4.216-4.192 2.328 0 4.216 1.877 4.216 4.192 0 2.314-1.888 4.191-4.216 4.191zm0-6.811a2.63 2.63 0 00-2.635 2.62 2.63 2.63 0 002.635 2.619 2.631 2.631 0 002.635-2.619 2.63 2.63 0 00-2.635-2.62z"/></svg><svg viewBox="0 0 36 37" id="inst-inner" xmlns="http://www.w3.org/2000/svg"><path fill-rule="evenodd" fill="#DF6199" d="M35.471 18.289c2.883 11.074-6.423 18.23-18.361 18.663C5.584 37.624.573 29.746.521 18.478.916 8.461 6.213 2.154 17.846.086 30.68-.957 33.824 7.216 35.471 18.289z"/></svg></svg>